<svg width="24" height="24" viewBox="0 0 24 24" fill="none" xmlns="http://www.w3.org/2000/svg">
<path fill-rule="evenodd" clip-rule="evenodd" d="M3.67247 6.00402C4.08446 5.96117 4.45318 6.26042 4.49604 6.67241L5.8398 19.5918C5.86211 19.7727 5.94952 19.9393 6.08577 20.0605C6.22307 20.1825 6.40041 20.25 6.58414 20.25H17.4165C17.6002 20.25 17.7775 20.1825 17.9148 20.0605C18.0511 19.9393 18.1385 19.7727 18.1608 19.5918L19.5041 6.67244C19.5469 6.26044 19.9156 5.96118 20.3276 6.00402C20.7396 6.04686 21.0389 6.41557 20.996 6.82756L19.6521 19.7529C19.6518 19.7562 19.6514 19.7596 19.651 19.763C19.5866 20.3104 19.3235 20.8151 18.9116 21.1814C18.4997 21.5476 17.9677 21.75 17.4165 21.75H6.58411C6.03291 21.75 5.5009 21.5476 5.08901 21.1814C4.67711 20.8151 4.414 20.3104 4.34957 19.763C4.34927 19.7604 4.34898 19.7578 4.3487 19.7552L4.34846 19.7529L3.00408 6.82759C2.96123 6.4156 3.26048 6.04687 3.67247 6.00402Z" fill="#DC143C"/>
<path fill-rule="evenodd" clip-rule="evenodd" d="M0.75 3.75C0.75 2.92157 1.42157 2.25 2.25 2.25H21.75C22.5784 2.25 23.25 2.92157 23.25 3.75V6C23.25 6.82843 22.5784 7.5 21.75 7.5H2.25C1.42157 7.5 0.75 6.82843 0.75 6V3.75ZM21.75 3.75H2.25V6H21.75V3.75Z" fill="#DC143C"/>
<path fill-rule="evenodd" clip-rule="evenodd" d="M15.1553 10.7197C15.4482 11.0126 15.4482 11.4874 15.1553 11.7803L9.90533 17.0303C9.61244 17.3232 9.13756 17.3232 8.84467 17.0303C8.55178 16.7374 8.55178 16.2626 8.84467 15.9697L14.0947 10.7197C14.3876 10.4268 14.8624 10.4268 15.1553 10.7197Z" fill="#DC143C"/>
<path fill-rule="evenodd" clip-rule="evenodd" d="M8.84467 10.7197C9.13756 10.4268 9.61244 10.4268 9.90533 10.7197L15.1553 15.9697C15.4482 16.2626 15.4482 16.7374 15.1553 17.0303C14.8624 17.3232 14.3876 17.3232 14.0947 17.0303L8.84467 11.7803C8.55178 11.4874 8.55178 11.0126 8.84467 10.7197Z" fill="#DC143C"/>
</svg>
