<svg width="24" height="24" viewBox="0 0 24 24" fill="none" xmlns="http://www.w3.org/2000/svg">
<g clip-path="url(#clip0_102_19621)">
<path d="M9.74998 24C9.58592 24 9.42654 23.9672 9.27654 23.8969C8.99061 23.7703 8.77029 23.5406 8.65779 23.2453L6.67029 18.0797L1.49997 16.0922C1.1906 15.975 0.946845 15.7266 0.82497 15.4172C0.595282 14.8125 0.895283 14.1328 1.49997 13.9031L6.6656 11.9156L8.65779 6.75C8.77498 6.44062 9.02342 6.19687 9.3328 6.07499C9.62342 5.96249 9.94217 5.97187 10.2281 6.09843C10.514 6.225 10.7344 6.45468 10.8469 6.75L12.8344 11.9156L18 13.9078C18.3094 14.025 18.5531 14.2734 18.675 14.5828C18.9094 15.1875 18.6047 15.8672 18 16.0969L12.8344 18.0844L10.8422 23.25C10.725 23.5594 10.4765 23.8031 10.1672 23.925C10.0359 23.9766 9.89061 24 9.74998 24ZM2.83591 15L7.34529 16.7344C7.65467 16.8516 7.89842 17.1 8.02029 17.4094L9.75467 21.9188L11.489 17.4094C11.6062 17.1 11.8547 16.8563 12.164 16.7344L16.6734 15L12.164 13.2656C11.8547 13.1484 11.6109 12.9 11.489 12.5906L9.75467 8.08125L8.02029 12.5906C7.90311 12.9 7.65467 13.1438 7.34529 13.2656L2.83591 15ZM12.8812 12.0563C12.8859 12.0563 12.8859 12.0563 12.8812 12.0563V12.0563Z" fill="#21272A"/>
<path d="M4.12501 8.25001C3.81563 8.25001 3.53438 8.05782 3.42657 7.7672L2.61094 5.63907L0.482813 4.82344C0.192188 4.71563 0 4.43438 0 4.12501C0 3.81563 0.192188 3.53438 0.482813 3.42657L2.61094 2.61094L3.42657 0.482813C3.53438 0.192188 3.81563 0 4.12501 0C4.43438 0 4.71563 0.192188 4.82344 0.482813L5.63907 2.61094L7.7672 3.42657C8.05782 3.53907 8.25001 3.81563 8.25001 4.12501C8.25001 4.43438 8.05782 4.71563 7.7672 4.82344L5.63907 5.63907L4.82344 7.7672C4.71563 8.05782 4.43438 8.25001 4.12501 8.25001ZM2.84063 4.12501L3.45938 4.36407C3.65626 4.43907 3.81563 4.59844 3.89063 4.79532L4.12969 5.41407L4.36876 4.79532C4.44376 4.59844 4.60313 4.43907 4.80001 4.36407L5.41876 4.12501L4.80001 3.88594C4.60313 3.81094 4.44376 3.65157 4.36876 3.45469L4.12501 2.84063L3.88594 3.45938C3.81094 3.65626 3.65157 3.81563 3.45469 3.89063L2.84063 4.12501Z" fill="#21272A"/>
<path d="M18.75 12C18.4406 12 18.1594 11.8078 18.0516 11.5172L16.9219 8.57814L13.9828 7.44845C13.6922 7.33595 13.5 7.05938 13.5 6.75001C13.5 6.44063 13.6922 6.15938 13.9828 6.05157L16.9219 4.92188L18.0516 1.98281C18.1641 1.69219 18.4406 1.5 18.75 1.5C19.0594 1.5 19.3406 1.69219 19.4484 1.98281L20.5781 4.92188L23.5172 6.05157C23.8078 6.16407 24 6.44063 24 6.75001C24 7.05938 23.8078 7.34063 23.5172 7.44845L20.5781 8.57814L19.4484 11.5172C19.3406 11.8078 19.0594 12 18.75 12ZM16.3406 6.75001L17.7703 7.29845C17.9672 7.37345 18.1266 7.53282 18.2016 7.7297L18.75 9.15939L19.2984 7.7297C19.3734 7.53282 19.5328 7.37345 19.7297 7.29845L21.1594 6.75001L19.7297 6.20157C19.5328 6.12657 19.3734 5.96719 19.2984 5.77032L18.75 4.34063L18.2016 5.77032C18.1266 5.96719 17.9672 6.12657 17.7703 6.20157L16.3406 6.75001Z" fill="#21272A"/>
</g>
<defs>
<clipPath id="clip0_102_19621">
<rect width="24" height="24" fill="white"/>
</clipPath>
</defs>
</svg>
