<svg width="24" height="24" viewBox="0 0 24 24" fill="none" xmlns="http://www.w3.org/2000/svg">
<g clip-path="url(#clip0_102_18621)">
<path d="M9.75002 24C9.513 24.0012 9.28125 23.9301 9.08575 23.796C8.89025 23.662 8.74031 23.4715 8.65596 23.25L6.78846 18.3938C6.75063 18.2959 6.69277 18.207 6.61859 18.1329C6.5444 18.0587 6.45553 18.0008 6.35768 17.963L1.50002 16.0941C1.27874 16.0092 1.08842 15.8591 0.954167 15.6638C0.819915 15.4685 0.748047 15.237 0.748047 15C0.748047 14.763 0.819915 14.5316 0.954167 14.3362C1.08842 14.1409 1.27874 13.9909 1.50002 13.906L6.35627 12.0385C6.45413 12.0006 6.543 11.9428 6.61718 11.8686C6.69137 11.7944 6.74923 11.7055 6.78705 11.6077L8.65596 6.75002C8.74088 6.52874 8.89091 6.33842 9.08624 6.20417C9.28156 6.06992 9.51301 5.99805 9.75002 5.99805C9.98703 5.99805 10.2185 6.06992 10.4138 6.20417C10.6091 6.33842 10.7592 6.52874 10.8441 6.75002L12.7116 11.6063C12.7494 11.7041 12.8073 11.793 12.8814 11.8672C12.9556 11.9414 13.0445 11.9992 13.1424 12.0371L17.9705 13.8947C18.2008 13.9801 18.3992 14.1343 18.5386 14.3365C18.6781 14.5386 18.7519 14.7788 18.75 15.0244C18.7464 15.2573 18.673 15.4837 18.5393 15.6744C18.4056 15.8652 18.2177 16.0113 18 16.0941L13.1438 17.9616C13.0459 17.9994 12.957 18.0573 12.8829 18.1314C12.8087 18.2056 12.7508 18.2945 12.713 18.3924L10.8441 23.25C10.7597 23.4715 10.6098 23.662 10.4143 23.796C10.2188 23.9301 9.98704 24.0012 9.75002 24Z" fill="#21272A"/>
<path d="M4.12491 8.24999C3.98595 8.24999 3.85026 8.20788 3.7357 8.12922C3.62115 8.05057 3.53311 7.93905 3.48319 7.80937L2.69288 5.75437C2.67575 5.70942 2.64931 5.66861 2.6153 5.6346C2.5813 5.60059 2.54048 5.57415 2.49554 5.55702L0.440536 4.76671C0.31087 4.71678 0.199373 4.62874 0.120733 4.51418C0.0420927 4.39963 0 4.26394 0 4.12499C0 3.98604 0.0420927 3.85036 0.120733 3.7358C0.199373 3.62125 0.31087 3.53321 0.440536 3.48327L2.49554 2.69296C2.54044 2.67575 2.58121 2.64929 2.61521 2.61529C2.64921 2.58129 2.67567 2.54052 2.69288 2.49562L3.47616 0.458899C3.52034 0.338994 3.59635 0.233393 3.69603 0.153447C3.79572 0.0735004 3.91531 0.022231 4.04194 0.00514868C4.19398 -0.013334 4.34784 0.0194684 4.47912 0.0983546C4.6104 0.177241 4.71158 0.297695 4.76663 0.440617L5.55694 2.49562C5.57415 2.54052 5.60061 2.58129 5.63461 2.61529C5.66861 2.64929 5.70939 2.67575 5.75429 2.69296L7.80929 3.48327C7.93895 3.53321 8.05045 3.62125 8.12909 3.7358C8.20773 3.85036 8.24982 3.98604 8.24982 4.12499C8.24982 4.26394 8.20773 4.39963 8.12909 4.51418C8.05045 4.62874 7.93895 4.71678 7.80929 4.76671L5.75429 5.55702C5.70934 5.57415 5.66853 5.60059 5.63452 5.6346C5.60051 5.66861 5.57407 5.70942 5.55694 5.75437L4.76663 7.80937C4.71671 7.93905 4.62867 8.05057 4.51412 8.12922C4.39957 8.20788 4.26387 8.24999 4.12491 8.24999Z" fill="#21272A"/>
<path d="M18.7499 12C18.5983 11.9999 18.4503 11.9539 18.3253 11.8681C18.2004 11.7822 18.1044 11.6605 18.05 11.519L16.9794 8.73607C16.9606 8.68703 16.9317 8.64249 16.8945 8.60535C16.8574 8.5682 16.8128 8.53928 16.7638 8.52044L13.9808 7.44982C13.8394 7.39534 13.7179 7.29931 13.6321 7.17439C13.5464 7.04946 13.5005 6.90149 13.5005 6.74997C13.5005 6.59845 13.5464 6.45049 13.6321 6.32556C13.7179 6.20064 13.8394 6.10461 13.9808 6.05013L16.7638 4.97951C16.8128 4.96067 16.8574 4.93175 16.8945 4.8946C16.9317 4.85746 16.9606 4.81292 16.9794 4.76388L18.0421 2.0006C18.0906 1.86993 18.1736 1.75485 18.2823 1.6676C18.391 1.58036 18.5213 1.52421 18.6594 1.50513C18.8253 1.48505 18.9932 1.52095 19.1364 1.60715C19.2795 1.69334 19.3898 1.82489 19.4497 1.98091L20.5204 4.76388C20.5392 4.81292 20.5681 4.85746 20.6053 4.8946C20.6424 4.93175 20.6869 4.96067 20.736 4.97951L23.5189 6.05013C23.6603 6.10461 23.7819 6.20064 23.8676 6.32556C23.9534 6.45049 23.9993 6.59845 23.9993 6.74997C23.9993 6.90149 23.9534 7.04946 23.8676 7.17439C23.7819 7.29931 23.6603 7.39534 23.5189 7.44982L20.736 8.52044C20.6869 8.53928 20.6424 8.5682 20.6053 8.60535C20.5681 8.64249 20.5392 8.68703 20.5204 8.73607L19.4497 11.519C19.3953 11.6605 19.2994 11.7822 19.1744 11.8681C19.0495 11.9539 18.9015 11.9999 18.7499 12Z" fill="#21272A"/>
</g>
<defs>
<clipPath id="clip0_102_18621">
<rect width="24" height="24" fill="white"/>
</clipPath>
</defs>
</svg>
